# xmcd
#
# Track frame offsets:
#	150
#	34700
#	57887
#	114950
#	169040
#	187715
#	229850
#	259112
#	293912
#
# Disc length: 4428 seconds
#
# Revision: 2
# Processed by: cddbd v1.5.1PL2 Copyright (c) Steve Scherf et al.
# Submitted via: EasyCDDAExtractor 8.2.3.1
#
DISCID=6f114a09
DTITLE=Stevie Ray Vaughan And Double Trouble - Stilleto Rain
DYEAR=1900
DGENRE=Blues
TTITLE0=Ain't Giving Up On Love
TTITLE1=Pride and Joy
TTITLE2=Voodoo Child
TTITLE3=Tin Pan Alley
TTITLE4=Little Sister
TTITLE5=Texas Flood
TTITLE6=Come On
TTITLE7=Little Wing
TTITLE8=3rd Stone From The Sun
EXTD=
EXTT0=
EXTT1=
EXTT2=
EXTT3=
EXTT4=
EXTT5=
EXTT6=
EXTT7=
EXTT8=
PLAYORDER=
